<svg viewBox="0 0 32 32" xml:space="preserve" xmlns="http://www.w3.org/2000/svg"><path d="M30.286 25.036c-2.265-.954-3.549-2.257-3.923-3.981-.96-4.417 4.313-10.117 4.367-10.174a1 1 0 0 0-.545-1.666 8.153 8.153 0 0 0-1.509-.144c-3.786 0-6.317 2.733-7.894 5.431C19.461 4.86 9.442 1.103 9.323 1.06a1.002 1.002 0 0 0-1.156 1.521c4.699 6.592 4.922 12.386 4.649 15.215-.816-.97-2.184-2.661-4.464-5.607a21.53 21.53 0 0 0-1.597-2.073 1 1 0 0 0-1.551 1.261s.629.826 1.523 1.981c1.593 2.397 2.064 4.562 1.4 6.436-1.285 3.623-6.371 5.235-6.422 5.251A1 1 0 0 0 2 27h28.02a1 1 0 0 0 .266-1.964zM6.25 25c1.512-1.036 3.044-2.518 3.76-4.529a7.164 7.164 0 0 0 .416-2.427c2.092 2.567 2.395 2.699 2.636 2.804a1.001 1.001 0 0 0 1.352-.617c.098-.313 2.111-7.024-2.659-15.702 3.501 2.217 8.482 6.927 6.855 15.226a1 1 0 0 0 1.952.435c.021-.087 2.147-8.343 7.375-9.068-1.713 2.257-4.362 6.507-3.529 10.354.295 1.362.984 2.54 2.06 3.525H6.25zM30 29h-8a1 1 0 0 0 0 2h8a1 1 0 0 0 0-2zM19 29h-2a1 1 0 0 0 0 2h2a1 1 0 0 0 0-2zM14 29H2a1 1 0 0 0 0 2h12a1 1 0 0 0 0-2z" fill="#ffffff" class="fill-000000"></path></svg>