<svg width="110" height="118" viewBox="0 0 110 118" fill="none" xmlns="http://www.w3.org/2000/svg">
<path d="M11.1417 59.8114C11.1675 59.8621 11.2191 59.8828 11.2492 59.9289C16.7986 70.088 27.0574 76.9444 38.805 76.9444C43.5349 76.9382 48.2035 75.7972 52.4691 73.6049C52.5363 73.5946 52.6025 73.5776 52.6667 73.5542C52.7201 73.5158 52.7704 73.4726 52.8171 73.4251C55.6583 71.9265 58.277 69.9849 60.588 67.6634C60.7104 67.5818 60.8181 67.4772 60.906 67.3546C63.035 65.1586 64.8706 62.6574 66.3609 59.922C66.3931 59.8782 66.4447 59.8574 66.4726 59.8044C66.4947 59.7476 66.5126 59.6891 66.5263 59.6293C70.1959 52.7759 71.5309 44.7674 70.3031 36.9744C69.0752 29.1815 65.3607 22.0886 59.7953 16.9096C59.7116 16.7941 59.6098 16.695 59.4945 16.6169C56.3235 13.7105 52.652 11.4993 48.6878 10.1085C48.6427 10.0854 48.5955 10.0716 48.5482 10.0532C45.3998 8.96579 42.1126 8.41139 38.805 8.40991C21.1878 8.40991 6.86206 23.7822 6.86206 42.6783C6.86258 48.6307 8.31901 54.4789 11.0859 59.6385C11.1 59.6977 11.1187 59.7555 11.1417 59.8114ZM9.31772 42.6783C9.32549 40.1667 9.61401 37.6652 10.1771 35.2273L37.5761 20.0716V30.021L9.45308 45.5776C9.37358 44.6212 9.31772 43.6578 9.31772 42.6783ZM57.6124 52.8051L49.3882 47.7071V13.1852C52.3712 14.413 55.1487 16.1518 57.6124 18.3339V52.8051ZM58.5105 66.1446C56.7141 67.8907 54.7248 69.3938 52.5873 70.6203C47.6376 60.8398 39.4114 53.4395 29.571 49.915L38.8093 44.1971L45.1064 48.0966C54.1771 55.3702 57.621 63.621 58.5105 66.1446ZM41.8945 74.1327C35.3181 60.8554 25.4525 56.9351 20.0857 55.7874L26.5933 51.7565C29.0296 52.381 42.4595 56.4834 50.3636 71.7704C47.6668 73.0084 44.8119 73.8047 41.8945 74.1327ZM46.924 46.1907L40.0232 41.9178V11.111C42.3593 11.2086 44.6761 11.6063 46.924 12.2956V46.1907ZM37.5761 32.9871V41.9178L12.6951 57.3292C11.3163 54.5071 10.3463 51.4763 9.81831 48.3409L37.5761 32.9871ZM13.9433 59.6016L16.6267 57.9399C18.7923 58.0437 31.2125 59.3389 39.1703 74.3032C39.05 74.3032 38.9318 74.3217 38.8115 74.3217C33.8447 74.3166 28.9597 72.9645 24.6107 70.3909C20.2617 67.8173 16.59 64.1058 13.9369 59.6016H13.9433ZM60.4183 64.1326C59.5332 61.8879 57.6984 58.0644 54.3683 53.833L63.6839 59.5947C62.7234 61.2104 61.6283 62.7293 60.4119 64.1326H60.4183ZM68.3009 42.6783C68.3013 47.7837 67.1421 52.8124 64.9236 57.3292L60.0746 54.3331V20.816C65.3496 26.6871 68.2962 34.5242 68.2945 42.6783H68.3009ZM37.5783 11.1041V17.0963L11.1847 31.7057C13.2062 25.8678 16.7887 20.7996 21.4833 17.1361C26.1779 13.4726 31.776 11.3767 37.5761 11.111L37.5783 11.1041Z" fill="white"/>
<path d="M76.0203 82.7013C76.0611 82.7728 76.1299 82.8073 76.1793 82.8696C77.4158 85.1235 79.1796 86.9919 81.296 88.2901C83.4124 89.5882 85.808 90.2711 88.246 90.2711C90.6839 90.2711 93.0796 89.5882 95.196 88.2901C97.3124 86.9919 99.0761 85.1235 100.313 82.8696C100.362 82.8097 100.431 82.7751 100.472 82.7036C100.529 82.5842 100.569 82.4559 100.59 82.3234C101.735 80.1248 102.344 77.6513 102.36 75.1327C102.36 71.1157 100.873 67.2631 98.2246 64.4226C95.5767 61.5821 91.9854 59.9863 88.2406 59.9863C84.4959 59.9863 80.9045 61.5821 78.2566 64.4226C75.6087 67.2631 74.1211 71.1157 74.1211 75.1327C74.137 77.6499 74.7459 80.1218 75.8914 82.3187C75.9145 82.453 75.9581 82.5822 76.0203 82.7013ZM88.2471 87.6357C86.4113 87.6317 84.6025 87.1614 82.9688 86.2633C81.335 85.3652 79.9228 84.0648 78.8477 82.4686L88.2449 76.6515L97.6379 82.4686C96.5639 84.0638 95.153 85.3636 93.5208 86.2617C91.8886 87.1598 90.0814 87.6306 88.2471 87.6357ZM99.9023 75.1327C99.8986 76.8811 99.5509 78.6088 98.8818 80.203L89.4717 74.3745V62.7566C92.3276 63.0751 94.9727 64.5153 96.8983 66.8C98.8239 69.0848 99.8939 72.0527 99.9023 75.1327ZM87.0117 62.7566V74.3699L77.608 80.203C76.8523 78.408 76.5059 76.4457 76.5977 74.4785C76.6895 72.5114 77.2167 70.5959 78.1358 68.8908C79.0549 67.1857 80.3393 65.7399 81.8828 64.6732C83.4263 63.6065 85.1845 62.9495 87.0117 62.7566Z" fill="white"/>
<path d="M101.941 106.956H89.6952V97.101C94.6318 96.7466 99.2799 94.4784 102.773 90.7193C103.003 90.4717 103.132 90.1362 103.132 89.7866C103.131 89.4369 103.001 89.1017 102.771 88.8548C102.54 88.6079 102.227 88.4694 101.901 88.4698C101.575 88.4702 101.263 88.6096 101.032 88.8571C99.3524 90.6596 97.3579 92.0894 95.1627 93.0649C92.9675 94.0405 90.6146 94.5426 88.2385 94.5426C85.8624 94.5426 83.5096 94.0405 81.3144 93.0649C79.1192 92.0894 77.1246 90.6596 75.4446 88.8571C75.2144 88.6096 74.9019 88.4702 74.576 88.4698C74.25 88.4694 73.9373 88.6079 73.7065 88.8548C73.4757 89.1017 73.3459 89.4369 73.3455 89.7866C73.3451 90.1362 73.4742 90.4717 73.7044 90.7193C77.3096 94.5968 82.1393 96.8829 87.2395 97.1263V106.956H40.4831V84.9368C50.3653 84.5326 59.739 80.1327 66.7219 72.6206C66.9521 72.373 67.0812 72.0375 67.0808 71.6879C67.0804 71.3382 66.9506 71.003 66.7198 70.7561C66.489 70.5092 66.1763 70.3707 65.8503 70.3711C65.5243 70.3715 65.2119 70.5108 64.9817 70.7584C61.5444 74.4461 57.4637 77.3714 52.9725 79.3672C48.4812 81.363 43.6675 82.3902 38.8062 82.3902C33.9449 82.3902 29.1312 81.363 24.64 79.3672C20.1487 77.3714 16.068 74.4461 12.6307 70.7584C12.4005 70.5108 12.0881 70.3715 11.7621 70.3711C11.4362 70.3707 11.1234 70.5092 10.8926 70.7561C10.6619 71.003 10.532 71.3382 10.5316 71.6879C10.5312 72.0375 10.6603 72.373 10.8905 72.6206C18.0906 80.3744 27.8263 84.8096 38.0274 84.9829V106.956H8.05884C7.89328 106.948 7.72803 106.977 7.57302 107.04C7.41801 107.103 7.27646 107.198 7.15686 107.321C7.03726 107.445 6.9421 107.592 6.87709 107.756C6.81208 107.919 6.77856 108.095 6.77856 108.273C6.77856 108.451 6.81208 108.627 6.87709 108.79C6.9421 108.954 7.03726 109.101 7.15686 109.224C7.27646 109.347 7.41801 109.443 7.57302 109.506C7.72803 109.569 7.89328 109.598 8.05884 109.59H101.946C102.111 109.598 102.276 109.569 102.431 109.506C102.586 109.443 102.728 109.347 102.848 109.224C102.967 109.101 103.062 108.954 103.127 108.79C103.192 108.627 103.226 108.451 103.226 108.273C103.226 108.095 103.192 107.919 103.127 107.756C103.062 107.592 102.967 107.445 102.848 107.321C102.728 107.198 102.586 107.103 102.431 107.04C102.276 106.977 102.111 106.948 101.946 106.956H101.941Z" fill="white"/>
</svg>
