<svg width="110" height="118" viewBox="0 0 110 118" fill="none" xmlns="http://www.w3.org/2000/svg">
<path d="M97.7839 87.5897H89.0806V43.1438C89.0783 41.3554 88.4533 39.6325 87.3281 38.3129C86.2029 36.9933 84.6587 36.1723 82.9984 36.0108C84.4226 33.5636 85.0486 30.6781 84.778 27.8078C84.5074 24.9374 83.3555 22.2449 81.5034 20.1531C79.6513 18.0613 77.2039 16.6888 74.5456 16.2512C71.8873 15.8136 69.1688 16.3358 66.8173 17.7357C64.4657 19.1355 62.6143 21.3337 61.5539 23.985C60.4935 26.6362 60.2841 29.5903 60.9588 32.383C61.6335 35.1757 63.1539 37.6489 65.2813 39.4139C67.4086 41.179 70.0223 42.1359 72.7116 42.1344C73.1329 42.135 73.5539 42.1111 73.9728 42.0629L65.5273 51.1134H53.6851C51.9352 51.1471 50.2675 51.9164 49.0411 53.2559C47.8147 54.5953 47.1275 56.3977 47.1275 58.2752C47.1275 60.1527 47.8147 61.9551 49.0411 63.2946C50.2675 64.634 51.9352 65.4034 53.6851 65.437H68.2945C70.0655 65.4325 71.7635 64.6798 73.021 63.3421L75.7302 60.4359V68.9886H61.8341C60.0642 68.9916 58.3677 69.7473 57.1164 71.0901C55.8651 72.4328 55.1612 74.253 55.1589 76.1515V94.7527C55.1583 96.3663 55.6689 97.9323 56.607 99.1938H27.906V89.6524L42.4874 77.774C43.2129 77.199 43.7512 76.3935 44.0262 75.4719C44.3011 74.5503 44.2987 73.5593 44.0193 72.6392C43.7473 71.6989 43.2071 70.8738 42.4747 70.2805C41.7423 69.6871 40.8548 69.3553 39.9372 69.332C37.1644 69.2635 34.4386 70.1089 32.1277 71.7542C29.2359 73.7892 27.5579 76.6816 26.5911 79.5256C25.6243 76.6816 23.9464 73.7892 21.0525 71.7542C18.7467 70.1086 16.0243 69.2653 13.2558 69.3389C12.3385 69.3609 11.4509 69.6916 10.7184 70.2842C9.98592 70.8769 9.44557 71.7015 9.17376 72.6415C8.89455 73.5619 8.89179 74.553 9.16586 75.4752C9.43994 76.3973 9.97701 77.2038 10.7013 77.781L25.3644 89.7262V99.1938H6.81048C6.63977 99.1863 6.4694 99.2158 6.30961 99.2807C6.14982 99.3456 6.0039 99.4444 5.88063 99.5713C5.75736 99.6982 5.65927 99.8506 5.59227 100.019C5.52526 100.188 5.49072 100.369 5.49072 100.552C5.49072 100.736 5.52526 100.917 5.59227 101.086C5.65927 101.254 5.75736 101.407 5.88063 101.534C6.0039 101.66 6.14982 101.759 6.30961 101.824C6.4694 101.889 6.63977 101.919 6.81048 101.911H97.7839C99.5543 101.911 101.252 101.157 102.504 99.8137C103.756 98.4708 104.459 96.6495 104.459 94.7504C104.459 92.8512 103.756 91.0299 102.504 89.687C101.252 88.3441 99.5543 87.5897 97.7839 87.5897ZM33.5156 74.0335C35.2732 72.7549 37.3452 72.0651 39.4689 72.0515C39.5935 72.0515 39.7181 72.0515 39.847 72.0515C40.2401 72.0567 40.6214 72.196 40.9358 72.4491C41.2502 72.7023 41.4814 73.0562 41.5958 73.4597C41.7159 73.8446 41.7182 74.2607 41.6022 74.6471C41.4863 75.0336 41.2582 75.3701 40.9513 75.6076L27.9103 86.2322C28.1251 82.8766 29.1478 77.1149 33.5156 74.0335ZM12.246 75.6145C11.9385 75.3765 11.7101 75.0392 11.5941 74.6518C11.4781 74.2645 11.4807 73.8476 11.6015 73.462C11.7158 73.0588 11.947 72.7053 12.2616 72.4529C12.5761 72.2004 12.9575 72.0623 13.3503 72.0584C13.4749 72.0584 13.5995 72.0584 13.7263 72.0584C15.8493 72.0717 17.9207 72.7616 19.6775 74.0405C24.0581 77.1218 25.0808 82.8835 25.2849 86.2553L12.246 75.6145ZM63.1038 29.1106C63.1026 27.0718 63.665 25.0785 64.7199 23.3827C65.7749 21.6868 67.2749 20.3648 69.0304 19.5836C70.7859 18.8025 72.7179 18.5974 74.5821 18.9943C76.4462 19.3912 78.1588 20.3722 79.5031 21.8134C80.8474 23.2545 81.7631 25.0909 82.1344 27.0904C82.5056 29.0899 82.3157 31.1625 81.5887 33.0462C80.8617 34.9299 79.6303 36.54 78.0501 37.6728C76.47 38.8056 74.6122 39.4102 72.7116 39.4102C70.1653 39.4078 67.7238 38.3221 65.9227 36.3912C64.1215 34.4604 63.1078 31.8421 63.1038 29.1106ZM77.1761 99.1938H67.0634C68.0015 97.9323 68.5121 96.3663 68.5115 94.7527V83.3122H75.7302V94.7527C75.7288 96.3661 76.2386 97.9321 77.1761 99.1938ZM97.7839 99.1938H82.4054C81.3074 99.1932 80.2544 98.7252 79.4778 97.8925C78.7012 97.0598 78.2643 95.9306 78.2632 94.7527V81.9524C78.2632 81.5918 78.1297 81.2459 77.8919 80.9909C77.6542 80.7359 77.3318 80.5927 76.9956 80.5927H67.246C66.91 80.5933 66.5879 80.7367 66.3503 80.9916C66.1127 81.2465 65.979 81.592 65.9784 81.9524V94.7527C65.9538 95.9133 65.5067 97.0175 64.7328 97.829C63.9588 98.6406 62.9196 99.0949 61.8373 99.0949C60.7551 99.0949 59.7158 98.6406 58.9419 97.829C58.168 97.0175 57.7209 95.9133 57.6962 94.7527V76.1515C57.6968 74.9737 58.1331 73.8442 58.9093 73.011C59.6855 72.1779 60.7382 71.7093 61.8363 71.7081H76.9978C77.334 71.7081 77.6564 71.5648 77.8941 71.3098C78.1318 71.0548 78.2654 70.709 78.2654 70.3483V57.7163L83.2068 52.4156C83.3244 52.2892 83.4177 52.1392 83.4813 51.9742C83.545 51.8092 83.5776 51.6323 83.5775 51.4537C83.5774 51.2751 83.5445 51.0983 83.4808 50.9333C83.4169 50.7684 83.3235 50.6185 83.2057 50.4923C83.0879 50.3661 82.9481 50.266 82.7942 50.1978C82.6404 50.1295 82.4755 50.0945 82.309 50.0946C82.1425 50.0947 81.9777 50.1299 81.8239 50.1984C81.6702 50.2668 81.5305 50.3671 81.4128 50.4935L71.2292 61.4154C70.4516 62.2471 69.399 62.7151 68.3009 62.7175H53.6915C52.6096 62.6911 51.5802 62.2114 50.8237 61.3812C50.0672 60.551 49.6437 59.4362 49.6437 58.2752C49.6437 57.1143 50.0672 55.9994 50.8237 55.1692C51.5802 54.339 52.6096 53.8594 53.6915 53.8329H66.0665C66.4029 53.8308 66.7252 53.6877 66.9646 53.4342L79.0259 40.498L79.0431 40.5603C79.5523 39.791 80.2765 39.2156 81.1108 38.9173C81.9452 38.619 82.8464 38.6134 83.6839 38.9011C84.5215 39.1889 85.2519 39.7552 85.7694 40.5179C86.287 41.2807 86.5648 42.2004 86.5626 43.1438V88.961C86.5626 89.321 86.6959 89.6663 86.9333 89.9209C87.1706 90.1754 87.4924 90.3185 87.828 90.3185H97.799C98.8975 90.3185 99.9511 90.7866 100.728 91.6199C101.505 92.4532 101.941 93.5834 101.941 94.7619C101.941 95.9404 101.505 97.0706 100.728 97.9039C99.9511 98.7372 98.8975 99.2053 97.799 99.2053L97.7839 99.1938Z" fill="white"/>
</svg>
