<svg width="110" height="118" viewBox="0 0 110 118" fill="none" xmlns="http://www.w3.org/2000/svg">
<path d="M100.977 93.6119H89.375C89.2678 93.6117 89.161 93.6257 89.057 93.6534L49.1734 104.732C48.2944 104.974 47.3787 105.021 46.4821 104.871C45.5856 104.72 44.7271 104.375 43.9591 103.856L12.2117 82.2774C12.0433 82.162 11.8984 82.0113 11.7858 81.8342C11.6732 81.6572 11.5952 81.4575 11.5564 81.2472C11.5153 81.0352 11.5157 80.8164 11.5574 80.6046C11.5992 80.3927 11.6815 80.1925 11.7992 80.0165C12.8908 78.3656 14.4616 77.1493 16.266 76.5576C18.0704 75.9659 20.0067 76.0322 21.7722 76.7462L40.3326 84.2018V84.2134C40.3371 85.3267 40.7528 86.3927 41.4884 87.178C42.2241 87.9633 43.2199 88.4039 44.2578 88.4033C44.3437 88.4033 44.4297 88.4033 44.5156 88.3918L74.7312 86.2369C75.0663 86.2133 75.3789 86.048 75.6003 85.7772C75.8217 85.5064 75.9337 85.1524 75.9118 84.793C75.8898 84.4336 75.7357 84.0982 75.4833 83.8607C75.2309 83.6232 74.9008 83.503 74.5658 83.5266L44.348 85.6814C44.1587 85.7034 43.9673 85.6791 43.7879 85.6104C43.6086 85.5418 43.4461 85.4305 43.3125 85.285C43.1749 85.1461 43.0658 84.9782 42.9918 84.7917C42.9178 84.6053 42.8807 84.4044 42.8828 84.2018V83.2454C42.8775 81.0004 43.5419 78.8124 44.7789 77.0015C46.0159 75.1906 47.7606 73.8518 49.7578 73.1808L65.9613 67.668C70.4461 66.1568 75.2636 66.2222 79.7113 67.8547L93.8179 73.0794C93.9507 73.1283 94.0901 73.1533 94.2304 73.1532H100.977C101.147 73.1607 101.318 73.1312 101.477 73.0663C101.637 73.0014 101.783 72.9025 101.906 72.7756C102.03 72.6487 102.128 72.4964 102.195 72.3278C102.262 72.1592 102.296 71.9778 102.296 71.7946C102.296 71.6113 102.262 71.4299 102.195 71.2613C102.128 71.0927 102.03 70.9404 101.906 70.8135C101.783 70.6866 101.637 70.5877 101.477 70.5228C101.318 70.458 101.147 70.4284 100.977 70.4359H94.4238L80.5191 65.2873C75.7157 63.5261 70.5223 63.4006 65.6498 64.9277C63.5013 62.7291 55.4146 55.6214 40.831 55.6214H40.7816V39.3434H41.3166C52.1834 39.3434 60.9511 36.3634 67.3943 30.475C71.182 27.0179 72.3013 21.6872 70.241 16.9004C68.2107 12.1711 63.7849 9.64059 58.9101 10.4841C49.0402 12.1781 42.1996 18.9584 39.5162 26.2113C36.8285 18.9538 29.9814 12.1711 20.0943 10.4795C15.2539 9.6475 10.8002 12.1711 8.77204 16.8957C6.71598 21.6757 7.83102 27.0018 11.6144 30.4634C18.0597 36.3634 26.834 39.3457 37.7179 39.3457H38.2422V55.7574C23.7381 57.2577 16.7084 71.0951 15.3828 74.0059C13.0952 74.7902 11.1079 76.3525 9.72165 78.4563C9.40851 78.9348 9.18868 79.4762 9.07534 80.048C8.962 80.6199 8.95749 81.2104 9.06208 81.7842C9.1671 82.3579 9.38092 82.9022 9.69027 83.3836C9.99961 83.8649 10.3979 84.2728 10.8603 84.5821L42.6056 106.154C43.6653 106.873 44.8508 107.351 46.0893 107.56C47.3278 107.769 48.5931 107.704 49.8072 107.369L89.5533 96.3337H100.977C101.147 96.3413 101.318 96.3117 101.477 96.2468C101.637 96.182 101.783 96.0831 101.906 95.9562C102.03 95.8293 102.128 95.677 102.195 95.5084C102.262 95.3398 102.296 95.1584 102.296 94.9751C102.296 94.7918 102.262 94.6104 102.195 94.4418C102.128 94.2732 102.03 94.1209 101.906 93.994C101.783 93.8671 101.637 93.7682 101.477 93.7034C101.318 93.6385 101.147 93.6089 100.977 93.6165V93.6119ZM59.3097 13.1783C63.8215 12.4062 66.7691 15.3216 67.94 18.0504C69.1302 20.816 69.272 25.1949 65.7508 28.4215C59.8984 33.7684 51.8955 36.5248 41.9375 36.6354C49.139 26.5823 61.7675 21.8992 61.9029 21.8508C62.2214 21.7353 62.4841 21.4888 62.6332 21.1655C62.7823 20.8422 62.8055 20.4686 62.6978 20.1269C62.5901 19.7852 62.3603 19.5034 62.0589 19.3435C61.7576 19.1836 61.4093 19.1587 61.0908 19.2742C60.5279 19.4793 48.5009 23.9297 40.7795 33.8329V32.9571C40.7816 26.0638 46.533 15.3631 59.3119 13.1691L59.3097 13.1783ZM11.0709 18.032C12.1129 15.6097 14.5707 13.0423 18.2617 13.0423C18.743 13.0422 19.2237 13.083 19.699 13.1645C32.4929 15.3562 38.2507 26.0707 38.2507 32.9617V33.8214C30.5271 23.9112 18.5002 19.4678 17.9394 19.2627C17.6209 19.1471 17.2726 19.1721 16.9713 19.332C16.6699 19.4919 16.4401 19.7737 16.3324 20.1154C16.2247 20.4571 16.2479 20.8307 16.397 21.154C16.5461 21.4772 16.8088 21.7238 17.1273 21.8393C17.2627 21.8877 29.8804 26.5524 37.0927 36.6239C27.124 36.5109 19.1125 33.7499 13.2601 28.3961C9.74098 25.1765 9.88278 20.8022 11.0709 18.032ZM40.831 58.3386C52.5443 58.3386 59.8254 63.3191 62.8009 65.8842L48.9693 70.5904C46.7503 71.3379 44.7739 72.7438 43.2684 74.6455C41.7628 76.5472 40.7897 78.8671 40.4615 81.3371L22.6638 74.1926C21.3448 73.6646 19.9442 73.4104 18.5367 73.4436C21.0246 68.8019 28.0564 58.3386 40.831 58.3386Z" fill="white"/>
<path d="M25.5901 72.54C25.7567 72.5406 25.9218 72.5059 26.076 72.4379C26.2301 72.3698 26.3701 72.2698 26.4881 72.1436L28.2348 70.2699C28.4625 70.0124 28.5876 69.6697 28.5834 69.3149C28.5791 68.96 28.4459 68.6208 28.2121 68.3697C27.9783 68.1186 27.6624 67.9753 27.3315 67.9703C27.0007 67.9654 26.6811 68.0991 26.4409 68.3431L24.692 70.2191C24.4555 70.4751 24.3228 70.8209 24.3228 71.1814C24.3228 71.5418 24.4555 71.8876 24.692 72.1436C24.8097 72.2702 24.9497 72.3705 25.1039 72.4386C25.2581 72.5066 25.4234 72.5411 25.5901 72.54Z" fill="white"/>
<path d="M33.0859 73.8261C32.848 74.0813 32.7144 74.4274 32.7144 74.7883C32.7144 75.1492 32.848 75.4953 33.0859 75.7505C33.3238 76.0057 33.6464 76.1491 33.9829 76.1491C34.3193 76.1491 34.6419 76.0057 34.8798 75.7505L36.6287 73.8745C36.7465 73.7481 36.8399 73.5981 36.9036 73.433C36.9674 73.2679 37.0002 73.091 37.0002 72.9123C37.0002 72.7336 36.9674 72.5566 36.9036 72.3915C36.8399 72.2264 36.7465 72.0764 36.6287 71.9501C36.5109 71.8237 36.371 71.7235 36.2171 71.6551C36.0632 71.5867 35.8983 71.5515 35.7317 71.5515C35.5651 71.5515 35.4002 71.5867 35.2463 71.6551C35.0924 71.7235 34.9525 71.8237 34.8347 71.9501L33.0859 73.8261Z" fill="white"/>
<path d="M33.4383 67.7855C33.6786 68.0295 33.9981 68.1632 34.329 68.1583C34.6598 68.1533 34.9758 68.01 35.2096 67.7589C35.4434 67.5078 35.5766 67.1687 35.5808 66.8138C35.5851 66.4589 35.46 66.1162 35.2322 65.8588L33.4834 63.985C33.3653 63.8587 33.2252 63.7585 33.0711 63.6902C32.9169 63.622 32.7517 63.5869 32.5849 63.5872C32.4181 63.5874 32.253 63.6228 32.099 63.6915C31.945 63.7601 31.8051 63.8607 31.6873 63.9873C31.5695 64.114 31.4761 64.2643 31.4125 64.4297C31.3489 64.5951 31.3162 64.7723 31.3164 64.9512C31.3166 65.1301 31.3497 65.3072 31.4137 65.4724C31.4777 65.6376 31.5714 65.7877 31.6895 65.9141L33.4383 67.7855Z" fill="white"/>
</svg>
