<svg width="110" height="118" viewBox="0 0 110 118" fill="none" xmlns="http://www.w3.org/2000/svg">
<path d="M100.074 46.2182C99.87 46.2297 95.2874 46.1583 92.0476 49.4194V34.7247C92.0481 33.6058 91.7646 32.5078 91.2275 31.5486C90.6904 30.5893 89.9201 29.8051 88.999 29.2799C88.0779 28.7547 87.041 28.5085 85.9994 28.5676C84.9577 28.6266 83.9507 28.9888 83.0864 29.6152C83.0762 28.2182 82.6214 26.8668 81.7974 25.7848C85.3724 22.019 86.973 18.3384 86.554 15.3584C86.2833 13.4594 84.7493 9.08046 75.8484 9.25792C62.571 9.55292 56.9679 23.7775 54.7829 32.4546C52.598 23.7844 46.9948 9.55292 33.7282 9.25792C24.9003 9.13808 23.289 13.4617 23.0247 15.3584C22.595 18.4075 24.2815 22.1941 28.037 26.0499C27.3301 27.0851 26.9439 28.3321 26.9327 29.6152C26.0686 28.9892 25.062 28.6274 24.0207 28.5686C22.9795 28.5097 21.9429 28.7561 21.0223 29.2813C20.1017 29.8065 19.3317 30.5906 18.795 31.5496C18.2583 32.5086 17.9752 33.6062 17.9759 34.7247V49.424C14.7167 46.1583 10.1663 46.2228 9.92569 46.2182C9.59419 46.2254 9.27859 46.372 9.04676 46.6263C8.81494 46.8805 8.68541 47.2223 8.68604 47.578V75.4278C8.68444 77.1095 9.03588 78.7701 9.71427 80.2862C10.3927 81.8023 11.3806 83.1351 12.6048 84.1856L21.6282 91.9524V106.011C21.6282 106.372 21.7618 106.717 21.9995 106.973C22.2372 107.228 22.5596 107.371 22.8958 107.371C23.232 107.371 23.5544 107.228 23.7921 106.973C24.0298 106.717 24.1634 106.372 24.1634 106.011V91.3117C24.1633 91.1085 24.1205 90.9079 24.0383 90.7248C23.9561 90.5416 23.8366 90.3807 23.6886 90.2539L14.1903 82.0791C13.2614 81.2809 12.5119 80.2684 11.9975 79.117C11.4832 77.9655 11.2171 76.7046 11.219 75.4278V49.0414C12.5683 49.2466 14.7425 49.8319 16.3388 51.5236C17.1001 52.3375 17.6707 53.3335 18.0038 54.4298C18.0142 54.4739 18.0278 54.5171 18.0446 54.5589C18.3504 55.6349 18.4997 56.7551 18.4872 57.8799V69.9957C18.4869 70.1741 18.5195 70.3509 18.5829 70.5158C18.6464 70.6808 18.7396 70.8307 18.8571 70.957C18.9746 71.0833 19.1142 71.1835 19.2679 71.2519C19.4216 71.3202 19.5863 71.3554 19.7526 71.3554H19.7763C19.7569 71.3554 27.3259 71.307 30.5657 77.2716C31.1279 78.528 31.8702 79.6821 32.7657 80.6917C38.4483 87.1771 49.7792 88.6083 53.6808 88.9171V107.398C53.6942 107.749 53.8336 108.081 54.0696 108.324C54.3056 108.567 54.6201 108.702 54.9473 108.702C55.2744 108.702 55.5889 108.567 55.8249 108.324C56.061 108.081 56.2003 107.749 56.2138 107.398V88.9241C60.0101 88.636 71.4978 87.237 77.2341 80.6917C78.1213 79.6899 78.859 78.5471 79.4212 77.3038C82.6288 71.337 90.1849 71.2771 90.23 71.3554H90.2472C90.583 71.3536 90.9047 71.2098 91.1424 70.9553C91.3801 70.7007 91.5146 70.3559 91.5169 69.9957V57.8799C91.5013 56.7604 91.6462 55.645 91.9466 54.5727C91.9638 54.5243 91.9788 54.4736 91.9917 54.4252C92.3294 53.3288 92.9053 52.3342 93.6718 51.5236C95.2702 49.8319 97.4401 49.2466 98.7894 49.0414V75.4278C98.7913 76.7044 98.5254 77.9651 98.0114 79.1165C97.4974 80.2678 96.7486 81.2804 95.8202 82.0791L86.3284 90.2539C86.1804 90.3807 86.0609 90.5416 85.9787 90.7248C85.8965 90.9079 85.8538 91.1085 85.8536 91.3117V106.029C85.8536 106.39 85.9872 106.736 86.2249 106.991C86.4626 107.246 86.785 107.389 87.1212 107.389C87.4574 107.389 87.7798 107.246 88.0175 106.991C88.2552 106.736 88.3888 106.39 88.3888 106.029V91.957L97.4122 84.1902C98.635 83.1386 99.6217 81.8055 100.299 80.2896C100.977 78.7736 101.328 77.1136 101.327 75.4324V47.578C101.327 47.2199 101.196 46.8761 100.961 46.6215C100.727 46.3668 100.408 46.2218 100.074 46.2182ZM74.6259 19.2096C74.4941 18.8787 74.2461 18.617 73.9356 18.4811C73.6251 18.3452 73.2772 18.3461 72.9673 18.4836C72.5698 18.661 64.8032 22.2471 57.6983 31.5604C60.0015 23.5654 65.1577 12.2125 75.8935 11.9705H76.4134C80.9251 11.9705 83.6987 13.3534 84.0382 15.7687C84.3282 17.8429 82.979 20.839 79.7907 24.1047C79.6253 24.2753 79.4513 24.4481 79.2751 24.621L79.2558 24.6394C79.0774 24.8146 78.8927 24.9874 78.7036 25.1626C78.5274 25.3262 78.3448 25.4898 78.1601 25.6535L78.0827 25.7226C77.8894 25.8932 77.6939 26.0637 77.4919 26.2343C76.5294 27.0432 75.4573 27.8614 74.2692 28.6749C73.7636 29.0237 73.2394 29.3709 72.6966 29.7166L72.6687 29.7328C72.1244 30.0785 71.5586 30.4234 70.9714 30.7676C69.2254 31.7909 67.2918 32.7896 65.1706 33.7637C63.9789 34.3091 62.725 34.8469 61.4087 35.3769C60.0452 35.9209 58.6129 36.4471 57.1118 36.9557C64.3757 25.4322 73.8439 21.0326 73.9448 20.9865C74.2542 20.847 74.4995 20.5817 74.6272 20.2488C74.7548 19.9158 74.7543 19.5422 74.6259 19.2096ZM25.5105 15.7664C25.8499 13.3418 28.6214 11.9682 33.1331 11.9682H33.6552C44.6401 12.2125 49.7856 24.0955 52.0093 32.1112L52.106 32.4684C44.8271 22.4822 36.5642 18.668 36.156 18.4836C35.8483 18.3552 35.5061 18.3606 35.2021 18.4986C34.8981 18.6367 34.6564 18.8965 34.5282 19.2228C34.4 19.5492 34.3956 19.9163 34.5158 20.246C34.636 20.5758 34.8714 20.8423 35.172 20.9888C35.2773 21.0349 44.6251 25.3493 51.8911 36.7713C50.7037 36.358 49.5579 35.9354 48.4536 35.5037C48.1464 35.3839 47.8413 35.2617 47.5405 35.1396L47.4847 35.1165L46.6425 34.7685L46.5608 34.7339C46.288 34.6187 46.0173 34.5035 45.7487 34.3859L45.6778 34.356L44.8185 33.9803C42.6528 33.0031 40.6791 31.9975 38.8974 30.9635C38.6353 30.8137 38.3796 30.6639 38.1282 30.5025L38.038 30.4495C37.256 29.9794 36.5119 29.5077 35.8058 29.0344C34.5284 28.1837 33.2941 27.2605 32.1083 26.2688C31.7087 25.9354 31.3277 25.602 30.9653 25.2686L30.9331 25.2386C30.5722 24.9068 30.2291 24.5764 29.904 24.2476C26.6148 20.9289 25.214 17.8659 25.5105 15.7664ZM29.4335 71.2632C29.4335 71.4937 29.4335 71.7103 29.4335 71.9316C26.4257 69.5347 22.8829 68.8756 21.0202 68.705V57.8799C21.0336 56.5077 20.8547 55.1411 20.4896 53.826V34.7247C20.4785 34.2649 20.5533 33.8074 20.7097 33.3791C20.8661 32.9508 21.1008 32.5604 21.4001 32.231C21.6993 31.9016 22.057 31.6397 22.4521 31.461C22.8472 31.2822 23.2716 31.1901 23.7004 31.1901C24.1292 31.1901 24.5536 31.2822 24.9487 31.461C25.3438 31.6397 25.7015 31.9016 26.0007 32.231C26.3 32.5604 26.5347 32.9508 26.6911 33.3791C26.8475 33.8074 26.9223 34.2649 26.9112 34.7247V51.572C26.9112 51.9326 27.0448 52.2785 27.2825 52.5335C27.5202 52.7885 27.8426 52.9318 28.1788 52.9318C28.515 52.9318 28.8374 52.7885 29.0751 52.5335C29.3128 52.2785 29.4464 51.9326 29.4464 51.572V29.6775C29.446 29.0359 29.6143 28.4072 29.9319 27.8637C31.8026 29.4872 33.7888 30.9513 35.8724 32.2426V52.1482C35.8653 52.3313 35.8929 52.514 35.9534 52.6855C36.0138 52.8569 36.106 53.0134 36.2243 53.1456C36.3426 53.2779 36.4846 53.3831 36.6418 53.455C36.7989 53.5268 36.968 53.5639 37.1389 53.5639C37.3097 53.5639 37.4788 53.5268 37.636 53.455C37.7931 53.3831 37.9351 53.2779 38.0534 53.1456C38.1717 53.0134 38.2639 52.8569 38.3244 52.6855C38.3849 52.514 38.4124 52.3313 38.4054 52.1482V33.7406C40.3647 34.8376 42.506 35.8947 44.8292 36.9119V52.1459C44.8222 52.329 44.8497 52.5117 44.9102 52.6831C44.9707 52.8546 45.0628 53.0111 45.1811 53.1433C45.2994 53.2756 45.4414 53.3808 45.5986 53.4527C45.7558 53.5245 45.9249 53.5616 46.0957 53.5616C46.2666 53.5616 46.4356 53.5245 46.5928 53.4527C46.75 53.3808 46.892 53.2756 47.0103 53.1433C47.1286 53.0111 47.2207 52.8546 47.2812 52.6831C47.3417 52.5117 47.3692 52.329 47.3622 52.1459V38.0873C47.3622 38.0481 47.3622 38.0089 47.3622 37.9697C49.2972 38.7379 51.3461 39.467 53.5089 40.1569C53.5622 40.2043 53.6181 40.2482 53.6765 40.2882V55.3955C49.8286 55.4369 39.2239 56.0869 33.3866 61.9154C32.1674 63.1012 31.1876 64.5425 30.5077 66.1502C29.8278 67.7579 29.4622 69.4981 29.4335 71.2632ZM77.189 76.004C77.1653 76.0501 77.1374 76.0962 77.1138 76.1423C77.0733 76.2207 77.0402 76.3033 77.015 76.3889C76.5827 77.276 76.0375 78.0943 75.395 78.8203C69.5835 85.4555 56.2159 86.216 54.9999 86.2714C53.7753 86.216 40.4292 85.467 34.6091 78.8249C33.9668 78.1031 33.4215 77.2886 32.9892 76.405C32.9628 76.3122 32.9275 76.2226 32.8839 76.1376C32.8517 76.0777 32.8173 76.0201 32.7872 75.9602C32.1823 74.5136 31.9033 72.9345 31.973 71.3508C32.0653 68.3547 33.0923 65.9187 35.114 63.9021C40.238 58.781 50.1122 58.1403 53.6808 58.1012V63.9021C53.6942 64.2527 53.8336 64.5842 54.0696 64.8272C54.3056 65.0702 54.6201 65.2059 54.9473 65.2059C55.2744 65.2059 55.5889 65.0702 55.8249 64.8272C56.061 64.5842 56.2003 64.2527 56.2138 63.9021V58.1081C59.6835 58.145 69.706 58.735 74.8858 63.9021C76.9075 65.9187 77.9345 68.357 78.0269 71.3554C78.0963 72.9537 77.8114 74.5468 77.1954 76.004H77.189ZM89.5081 53.826C89.1429 55.1411 88.9641 56.5077 88.9774 57.8799V68.7004C87.1126 68.8756 83.5741 69.5324 80.5599 71.927C80.5599 71.6965 80.5599 71.4822 80.5599 71.2563C80.5329 69.4909 80.1685 67.7503 79.4893 66.142C78.8101 64.5337 77.8304 63.0921 76.611 61.9062C70.7759 56.0846 60.1712 55.4277 56.3233 55.3862V40.0624C58.542 39.3495 60.6424 38.5928 62.6247 37.7923C62.6247 37.8891 62.6376 37.9859 62.6376 38.085V52.1435C62.6306 52.3267 62.6581 52.5094 62.7186 52.6808C62.7791 52.8523 62.8712 53.0088 62.9895 53.141C63.1078 53.2733 63.2498 53.3785 63.407 53.4504C63.5642 53.5222 63.7333 53.5593 63.9041 53.5593C64.075 53.5593 64.2441 53.5222 64.4012 53.4504C64.5584 53.3785 64.7004 53.2733 64.8187 53.141C64.937 53.0088 65.0291 52.8523 65.0896 52.6808C65.1501 52.5094 65.1776 52.3267 65.1706 52.1435V36.716C67.4995 35.6858 69.6437 34.6026 71.5966 33.4894V52.1574C71.5966 52.518 71.7301 52.8639 71.9679 53.1189C72.2056 53.3739 72.528 53.5171 72.8642 53.5171C73.2003 53.5171 73.5228 53.3739 73.7605 53.1189C73.9982 52.8639 74.1317 52.518 74.1317 52.1574V31.9545C76.1598 30.6708 78.0907 29.2182 79.9067 27.6101C80.3269 28.2075 80.5533 28.936 80.5513 29.6844V51.5789C80.5513 51.9395 80.6848 52.2854 80.9225 52.5404C81.1603 52.7954 81.4827 52.9387 81.8189 52.9387C82.155 52.9387 82.4774 52.7954 82.7152 52.5404C82.9529 52.2854 83.0864 51.9395 83.0864 51.5789V34.7316C83.0521 34.2565 83.1096 33.7789 83.2555 33.3288C83.4014 32.8787 83.6324 32.4658 83.9341 32.1161C84.2358 31.7663 84.6017 31.4873 85.0087 31.2964C85.4158 31.1055 85.8552 31.007 86.2994 31.007C86.7436 31.007 87.1831 31.1055 87.5901 31.2964C87.9972 31.4873 88.363 31.7663 88.6647 32.1161C88.9664 32.4658 89.1975 32.8787 89.3434 33.3288C89.4892 33.7789 89.5468 34.2565 89.5124 34.7316L89.5081 53.826Z" fill="white"/>
<path d="M38.0275 74.2362C37.7904 73.9811 37.4686 73.8373 37.1328 73.8367C36.7969 73.836 36.4746 73.9785 36.2367 74.2328C35.9988 74.4871 35.8649 74.8323 35.8643 75.1926C35.8637 75.5528 35.9965 75.8986 36.2335 76.1537L38.1564 78.228C38.2743 78.3544 38.4143 78.4547 38.5684 78.5231C38.7225 78.5916 38.8877 78.6267 39.0544 78.6267C39.2204 78.6274 39.385 78.5928 39.5384 78.5247C39.6918 78.4567 39.8311 78.3566 39.9482 78.2303C40.0657 78.1042 40.1589 77.9546 40.2225 77.7899C40.2861 77.6252 40.3188 77.4486 40.3188 77.2704C40.3188 77.0921 40.2861 76.9156 40.2225 76.7509C40.1589 76.5862 40.0657 76.4365 39.9482 76.3105L38.0275 74.2362Z" fill="white"/>
<path d="M46.6706 72.5055C46.554 72.3734 46.4139 72.2677 46.2586 72.1946C46.1032 72.1215 45.9358 72.0825 45.7663 72.08C45.5967 72.0774 45.4283 72.1113 45.2712 72.1797C45.114 72.2481 44.9712 72.3496 44.8512 72.4782C44.7312 72.6068 44.6364 72.7598 44.5725 72.9284C44.5085 73.0969 44.4767 73.2774 44.4789 73.4593C44.481 73.6413 44.5172 73.8209 44.5851 73.9876C44.6531 74.1543 44.7515 74.3047 44.8745 74.4299L46.8081 76.4926C47.0467 76.7464 47.3691 76.8888 47.705 76.8888C48.041 76.8888 48.3634 76.7464 48.602 76.4926C48.8386 76.2367 48.9713 75.8908 48.9713 75.5304C48.9713 75.17 48.8386 74.8242 48.602 74.5682L46.6706 72.5055Z" fill="white"/>
<path d="M40.6657 65.8266L38.7429 67.9008C38.505 68.156 38.3713 68.5021 38.3713 68.863C38.3713 69.2239 38.505 69.57 38.7429 69.8252C38.9808 70.0804 39.3034 70.2238 39.6398 70.2238C39.9763 70.2238 40.2989 70.0804 40.5368 69.8252L42.4597 67.7625C42.6874 67.5051 42.8125 67.1624 42.8083 66.8075C42.804 66.4526 42.6708 66.1135 42.437 65.8624C42.2032 65.6113 41.8872 65.468 41.5564 65.463C41.2256 65.4581 40.906 65.5918 40.6657 65.8358V65.8266Z" fill="white"/>
<path d="M51.6076 78.4978L49.674 80.5605C49.4361 80.8147 49.3021 81.16 49.3015 81.5202C49.3009 81.8805 49.4337 82.2262 49.6708 82.4814C49.9078 82.7366 50.2296 82.8803 50.5655 82.881C50.9013 82.8816 51.2236 82.7391 51.4615 82.4849L53.3951 80.4222C53.6212 80.165 53.7451 79.8236 53.7404 79.4701C53.7358 79.1167 53.6031 78.7791 53.3704 78.5288C53.1377 78.2786 52.8232 78.1354 52.4938 78.1296C52.1643 78.1238 51.8457 78.2558 51.6054 78.4978H51.6076Z" fill="white"/>
</svg>
