<svg width="110" height="118" viewBox="0 0 110 118" fill="none" xmlns="http://www.w3.org/2000/svg">
<path d="M81.473 76.9398C81.0219 76.6909 70.3334 70.8301 61.6902 73.2823C59.327 73.9529 57.4793 75.0799 56.1559 76.6287V67.9884C56.8006 68.8143 57.5723 69.5158 58.4375 70.0626C59.8258 70.9067 61.3987 71.3386 62.9943 71.314C64.1743 71.3022 65.3476 71.1224 66.4834 70.7794C75.118 68.2649 81.6385 57.4606 81.9092 57.0019C81.9997 56.857 82.0609 56.6933 82.0887 56.5214C82.1164 56.3494 82.1102 56.1732 82.0703 56.004C82.0278 55.836 81.9533 55.6793 81.8517 55.5437C81.75 55.4081 81.6233 55.2964 81.4795 55.2158C81.0283 54.9669 70.3441 49.113 61.6967 51.5606C59.3334 52.2312 57.4857 53.3582 56.1623 54.907V51.3716C57.5008 51.1411 59.7309 50.5004 61.5334 48.5506C63.3359 46.6009 64.2727 43.8514 64.2619 40.4013C64.2383 30.8046 56.1924 21.2516 55.8594 20.8483C55.7471 20.7262 55.6133 20.6293 55.4657 20.5631C55.3182 20.497 55.1599 20.4629 55 20.4629C54.8401 20.4629 54.6818 20.497 54.5343 20.5631C54.3867 20.6293 54.2529 20.7262 54.1406 20.8483C53.7969 21.2516 45.7617 30.8046 45.7295 40.4013C45.7166 43.8583 46.6361 46.594 48.4559 48.553C50.2756 50.5119 52.4971 51.1503 53.827 51.3716V54.8655C52.5057 53.3329 50.6623 52.222 48.3184 51.556C39.6602 49.0969 28.9824 54.96 28.5355 55.2112C28.3885 55.2906 28.2586 55.4021 28.1543 55.5387C28.0499 55.6753 27.9734 55.8338 27.9297 56.004C27.8873 56.1724 27.8785 56.3485 27.9036 56.5208C27.9288 56.6931 27.9875 56.8578 28.0758 57.0042C28.3465 57.4652 34.867 68.2673 43.5016 70.7817C44.6374 71.1247 45.8107 71.3045 46.9906 71.3164C48.5915 71.3431 50.17 70.9102 51.5625 70.0626C52.4194 69.5278 53.1852 68.8404 53.827 68.0299V76.5941C52.5057 75.0615 50.6623 73.9506 48.3184 73.2846C39.6623 70.8255 28.9824 76.6909 28.5355 76.9421C28.3913 77.0222 28.2642 77.1337 28.1625 77.2696C28.0608 77.4054 27.9866 77.5625 27.9447 77.7309C27.9029 77.8992 27.8942 78.0751 27.9194 78.2473C27.9445 78.4194 28.0029 78.584 28.0908 78.7305C28.3615 79.1915 34.882 89.9935 43.5166 92.508C44.6524 92.851 45.8257 93.0308 47.0057 93.0426C48.6015 93.0665 50.1744 92.6337 51.5625 91.7889C52.4189 91.2534 53.1846 90.5661 53.827 89.7562V96.2877C53.827 96.6202 53.9501 96.939 54.1693 97.1742C54.3885 97.4093 54.6857 97.5414 54.9957 97.5414C55.3057 97.5414 55.6029 97.4093 55.8221 97.1742C56.0413 96.939 56.1645 96.6202 56.1645 96.2877V89.7216C56.8113 90.5488 57.586 91.2505 58.4547 91.7958C59.8424 92.6416 61.4156 93.0744 63.0115 93.0496C64.1915 93.0377 65.3647 92.8579 66.5006 92.5149C75.1352 90.0005 81.6557 79.1961 81.9264 78.7374C82.0142 78.5909 82.0726 78.4263 82.0978 78.2542C82.123 78.082 82.1143 77.9061 82.0725 77.7378C82.0306 77.5694 81.9564 77.4123 81.8547 77.2765C81.7529 77.1407 81.6259 77.0291 81.4816 76.949L81.473 76.9398ZM62.2896 53.9805C68.4814 52.222 76.2373 55.4255 79.185 56.8268C77.2857 59.6247 72.0607 66.5572 65.8797 68.3502C59.1357 70.3069 56.9637 65.2689 56.4695 63.7408L70.3893 60.6964C70.5428 60.6672 70.6894 60.6054 70.8203 60.5146C70.9512 60.4238 71.0639 60.3058 71.1517 60.1675C71.2395 60.0293 71.3006 59.8736 71.3314 59.7096C71.3622 59.5456 71.3621 59.3767 71.3312 59.2128C71.3002 59.0488 71.239 58.8932 71.1511 58.755C71.0632 58.6169 70.9504 58.499 70.8194 58.4083C70.6884 58.3176 70.5418 58.256 70.3882 58.227C70.2346 58.198 70.0772 58.2023 69.9252 58.2396L56.1559 61.2518C56.2096 58.9402 57.1914 55.4255 62.2896 53.9805ZM48.0498 40.4082C48.0713 33.5402 52.9611 26.3312 54.9871 23.637C57.0152 26.3312 61.9051 33.5471 61.9266 40.4082C61.9459 46.8498 58.1711 48.4515 56.1559 48.8503V39.0185C56.1559 38.6859 56.0327 38.367 55.8135 38.1319C55.5944 37.8968 55.2971 37.7647 54.9871 37.7647C54.6771 37.7647 54.3799 37.8968 54.1607 38.1319C53.9415 38.367 53.8184 38.6859 53.8184 39.0185V48.8595C51.8031 48.4515 48.0305 46.8498 48.0498 40.4082ZM44.1203 68.3571C37.9393 66.5572 32.7121 59.6224 30.8129 56.8337C33.7605 55.4301 41.5078 52.2243 47.7104 53.9874C52.4863 55.3426 53.6465 58.5092 53.8184 60.8139V61.261L40.0684 58.2649C39.9164 58.2276 39.7589 58.2233 39.6054 58.2523C39.4518 58.2813 39.3052 58.343 39.1742 58.4336C39.0431 58.5243 38.9304 58.6422 38.8425 58.7804C38.7546 58.9186 38.6933 59.0742 38.6624 59.2381C38.6314 59.4021 38.6313 59.571 38.6622 59.735C38.693 59.8989 38.7541 60.0546 38.8419 60.1929C38.9296 60.3311 39.0423 60.4491 39.1733 60.54C39.3042 60.6308 39.4508 60.6926 39.6043 60.7217L53.5262 63.7662C53.0385 65.2781 50.8664 70.3184 44.1203 68.3571ZM44.1203 90.0857C37.9393 88.2858 32.7121 81.351 30.8129 78.5623C33.7605 77.1587 41.5078 73.9529 47.7104 75.7137C52.4799 77.0665 53.6443 80.2286 53.8184 82.531V82.9919L40.0684 79.9843C39.9164 79.947 39.7589 79.9427 39.6054 79.9717C39.4518 80.0007 39.3052 80.0623 39.1742 80.153C39.0431 80.2437 38.9304 80.3616 38.8425 80.4998C38.7546 80.6379 38.6933 80.7936 38.6624 80.9575C38.6314 81.1214 38.6313 81.2904 38.6622 81.4543C38.693 81.6183 38.7541 81.774 38.8419 81.9122C38.9296 82.0505 39.0423 82.1685 39.1733 82.2593C39.3042 82.3501 39.4508 82.4119 39.6043 82.4411L53.5262 85.4879C53.0363 87.0067 50.8643 92.0447 44.1203 90.0857ZM65.8797 90.0857C59.14 92.0447 56.9637 87.0067 56.4695 85.4763L70.3893 82.4296C70.5428 82.4004 70.6894 82.3386 70.8203 82.2478C70.9512 82.157 71.0639 82.039 71.1517 81.9007C71.2395 81.7625 71.3006 81.6068 71.3314 81.4428C71.3622 81.2788 71.3621 81.1099 71.3312 80.946C71.3002 80.7821 71.239 80.6264 71.1511 80.4882C71.0632 80.3501 70.9504 80.2322 70.8194 80.1415C70.6884 80.0508 70.5418 79.9892 70.3882 79.9602C70.2346 79.9312 70.0772 79.9355 69.9252 79.9728L56.1559 82.9873C56.2117 80.6665 57.1957 77.1541 62.2896 75.7091C68.4836 73.9506 76.2373 77.1541 79.185 78.5577C77.2857 81.3556 72.0607 88.2858 65.8797 90.0857Z" fill="white"/>
</svg>
