<svg viewBox="0 0 24 24" xmlns="http://www.w3.org/2000/svg"><g display="inline"><path d="M-38.492 12.871v9.334h5.035v-1.244l.018.006c1.313.437 3.186.82 5.043 1.484l.138.049.143-.033c.584-.136 2.15-.623 4.023-1.225a298.02 298.02 0 0 0 5.606-1.86 1.459 1.459 0 0 0 .888-1.872v-.004c-.294-.774-1.144-1.116-1.87-.893l-4.903 1.498a1.749 1.749 0 0 0-.674-1.338l-.025-.02-.028-.015c-2.093-1.247-2.275-1.402-5.218-2.967l-.135-.072-.153.016c-1.009.108-2.718.39-2.853.412V12.87zm1 1h3.035v7.334h-3.035zm6.842.86c2.692 1.433 2.999 1.65 4.99 2.837.314.251.397.558.205.834a.492.492 0 0 1-.358.235c-.149.025-.359-.002-.595-.106-.9-.416-1.389-.683-2.381-1.24l-.436-.244-.488.871.436.246c.995.558 1.525.848 2.45 1.275l.003.002h.004c.378.17.78.246 1.174.18.22-.037.43-.13.619-.262l5.851-1.79c.233-.072.543.044.639.288.09.25-.02.492-.275.58a296.856 296.856 0 0 1-5.584 1.854c-1.815.583-3.344 1.048-3.834 1.168-1.874-.652-3.73-1.054-4.895-1.441l-.332-.112v-4.763l.082-.014s1.714-.28 2.725-.398z" style="line-height:normal;font-variant-ligatures:normal;font-variant-position:normal;font-variant-caps:normal;font-variant-numeric:normal;font-variant-alternates:normal;font-variant-east-asian:normal;font-feature-settings:normal;font-variation-settings:normal;text-indent:0;text-align:start;text-decoration-line:none;text-decoration-style:solid;text-decoration-color:#000;text-transform:none;text-orientation:mixed;white-space:normal;shape-padding:0;shape-margin:0;inline-size:0;isolation:auto;mix-blend-mode:normal;solid-color:#000;solid-opacity:1" transform="translate(39.953 -.076)" color="#000000" font-style="normal" font-variant="normal" font-weight="400" font-stretch="normal" font-size="medium" font-family="sans-serif" text-decoration="none" letter-spacing="normal" word-spacing="normal" writing-mode="lr-tb" direction="ltr" dominant-baseline="auto" baseline-shift="baseline" text-anchor="start" clip-rule="nonzero" display="inline" overflow="visible" visibility="visible" opacity="1" color-interpolation="sRGB" color-interpolation-filters="linearRGB" vector-effect="none" fill="#ffffff" fill-opacity="1" fill-rule="nonzero" stroke="none" stroke-linecap="square" stroke-linejoin="miter" stroke-miterlimit="4" stroke-dasharray="none" stroke-dashoffset="0" stroke-opacity="1" paint-order="fill markers stroke" color-rendering="auto" image-rendering="auto" shape-rendering="auto" text-rendering="auto" enable-background="accumulate" stop-color="#ffffff" stop-opacity="1" class="fill-000000 stop-color-000000"></path><path d="M-23.88 1.652a6.475 6.475 0 0 0-6.47 6.467 6.477 6.477 0 0 0 6.47 6.469 6.475 6.475 0 0 0 6.466-6.469c0-3.566-2.9-6.467-6.467-6.467zm0 1c.197 0 .407.088.65.327.242.238.494.621.709 1.119.234.544.42 1.227.544 1.988h-3.808c.125-.761.31-1.444.545-1.988.214-.498.466-.881.709-1.12.242-.238.452-.326.65-.326zM-25.794 3a5.718 5.718 0 0 0-.365.701c-.292.677-.503 1.493-.637 2.385h-2.16A5.46 5.46 0 0 1-25.793 3Zm3.824 0a5.46 5.46 0 0 1 3.162 3.086h-2.16c-.134-.892-.345-1.708-.637-2.385A5.718 5.718 0 0 0-21.969 3Zm-7.281 4.086h2.34c-.025.338-.043.68-.043 1.033 0 .354.018.695.043 1.033h-2.34c-.064-.334-.1-.68-.1-1.033 0-.354.036-.698.1-1.033zm3.342 0h4.054c.027.336.045.679.045 1.033 0 .355-.018.697-.045 1.033h-4.054a12.974 12.974 0 0 1-.045-1.033c0-.354.018-.697.045-1.033zm5.056 0h2.338c.064.335.1.68.1 1.033 0 .354-.036.699-.1 1.033h-2.338c.025-.338.043-.68.043-1.033 0-.354-.018-.695-.043-1.033zm-8.103 3.066h2.16c.134.892.345 1.708.637 2.385.11.255.234.485.365.701a5.46 5.46 0 0 1-3.162-3.086zm3.17 0h3.808c-.125.761-.31 1.445-.544 1.989-.215.497-.467.883-.71 1.12-.242.239-.452.327-.65.327s-.408-.088-.65-.326c-.243-.238-.495-.624-.71-1.121-.234-.544-.419-1.228-.544-1.989zm4.818 0h2.16a5.46 5.46 0 0 1-3.162 3.086c.131-.216.256-.446.365-.7.292-.678.503-1.494.637-2.386z" style="line-height:normal;font-variant-ligatures:normal;font-variant-position:normal;font-variant-caps:normal;font-variant-numeric:normal;font-variant-alternates:normal;font-variant-east-asian:normal;font-feature-settings:normal;font-variation-settings:normal;text-indent:0;text-align:start;text-decoration-line:none;text-decoration-style:solid;text-decoration-color:#000;text-transform:none;text-orientation:mixed;white-space:normal;shape-padding:0;shape-margin:0;inline-size:0;isolation:auto;mix-blend-mode:normal;solid-color:#000;solid-opacity:1" transform="translate(39.953 -.076)" color="#000000" font-style="normal" font-variant="normal" font-weight="400" font-stretch="normal" font-size="medium" font-family="sans-serif" text-decoration="none" letter-spacing="normal" word-spacing="normal" writing-mode="lr-tb" direction="ltr" dominant-baseline="auto" baseline-shift="baseline" text-anchor="start" clip-rule="nonzero" display="inline" overflow="visible" visibility="visible" opacity="1" color-interpolation="sRGB" color-interpolation-filters="linearRGB" vector-effect="none" fill="#ffffff" fill-opacity="1" fill-rule="nonzero" stroke="none" stroke-linecap="butt" stroke-linejoin="miter" stroke-miterlimit="4" stroke-dasharray="none" stroke-dashoffset="0" stroke-opacity="1" paint-order="fill markers stroke" color-rendering="auto" image-rendering="auto" shape-rendering="auto" text-rendering="auto" enable-background="accumulate" stop-color="#ffffff" stop-opacity="1" class="fill-000000 stop-color-000000"></path></g></svg>