<svg viewBox="0 0 24 24" xmlns="http://www.w3.org/2000/svg"><g stroke-width=".943946"><path d="M12 1.78a2.61 2.61 0 0 0-2.603 2.603c0 .816.388 1.538.98 2.016a3.976 3.976 0 0 0-2.35 3.616v.472h3.501v3.04H4.246v2.898H2.028v5.415h5.415v-5.415H5.19v-1.952h6.338v1.952H9.294v5.415h5.412v-5.415h-2.234v-1.952h6.338v1.952h-2.253v5.415h5.415v-5.415h-2.218v-2.898h-7.282v-3.04h3.501v-.472c0-1.609-.97-2.992-2.35-3.616.592-.478.98-1.2.98-2.016A2.61 2.61 0 0 0 12 1.779zm0 .941c.923 0 1.66.739 1.66 1.662 0 .922-.737 1.659-1.66 1.659-.923 0-1.66-.737-1.66-1.66 0-.922.737-1.66 1.66-1.66zm0 4.267c1.493 0 2.578 1.137 2.832 2.555H9.168c.254-1.418 1.34-2.555 2.832-2.555ZM2.974 17.369h3.525v3.527H2.974Zm7.262 0h3.528v3.527h-3.528zm7.265 0h3.525v3.527h-3.525z" style="line-height:normal;font-variant-ligatures:normal;font-variant-position:normal;font-variant-caps:normal;font-variant-numeric:normal;font-variant-alternates:normal;font-variant-east-asian:normal;font-feature-settings:normal;font-variation-settings:normal;text-indent:0;text-align:start;text-decoration-line:none;text-decoration-style:solid;text-decoration-color:#000;text-transform:none;text-orientation:mixed;white-space:normal;shape-padding:0;shape-margin:0;inline-size:0;isolation:auto;mix-blend-mode:normal;solid-color:#000;solid-opacity:1" transform="matrix(1.05938 0 0 1.05938 -.713 -.51)" color="#000000" font-style="normal" font-variant="normal" font-weight="400" font-stretch="normal" font-size="medium" font-family="sans-serif" text-decoration="none" letter-spacing="normal" word-spacing="normal" writing-mode="lr-tb" direction="ltr" dominant-baseline="auto" baseline-shift="baseline" text-anchor="start" clip-rule="nonzero" display="inline" overflow="visible" visibility="visible" color-interpolation="sRGB" color-interpolation-filters="linearRGB" vector-effect="none" fill="#ffffff" fill-opacity="1" fill-rule="nonzero" stroke="none" stroke-width=".943946" stroke-linecap="butt" stroke-linejoin="miter" stroke-miterlimit="4" stroke-dasharray="none" stroke-dashoffset="0" stroke-opacity="1" paint-order="stroke fill markers" color-rendering="auto" image-rendering="auto" shape-rendering="auto" text-rendering="auto" enable-background="accumulate" stop-color="#ffffff" class="fill-000000 stop-color-000000"></path></g></svg>