<svg viewBox="0 0 32 32" xmlns="http://www.w3.org/2000/svg"><path d="M29 28h-8v-2.18a3 3 0 0 0 2-2.45 7.4 7.4 0 0 0-1.53-14.18 5 5 0 0 0-7.91-5.79l-7.69 7.7-2.29 2.28a1 1 0 0 0-.25.41l-1.28 4.1a1 1 0 0 0 .24 1l2.81 2.82a1.19 1.19 0 0 0 1.05.23l4.43-1.62a1.1 1.1 0 0 0 .37-.23l1.94-1.94 7.11-7.1a5.89 5.89 0 0 1 4 1.56 5.6 5.6 0 0 1-1.47 8.78A3 3 0 1 0 19 25.82V28H3a1 1 0 0 0 0 2h26a1 1 0 0 0 0-2ZM15 4.81A2.8 2.8 0 0 1 17 4a3.08 3.08 0 0 1 3 3 2.81 2.81 0 0 1-.81 2l-7 7L8 11.81ZM9.69 18.52l-3.62 1.32-1.93-1.93 1-3.29 1.39-1.39 4.21 4.21ZM20 22a1 1 0 1 1-1 1 1 1 0 0 1 1-1Z" data-name="science, technology, medical, biology, dna, laboratory, medicine, test, chemistry, chemical" fill="#ffffff" class="fill-000000"></path></svg>