<svg width="70" height="69" viewBox="0 0 70 69" fill="none" xmlns="http://www.w3.org/2000/svg">
<path d="M60.7031 20.2689L58.625 18.2205L39.375 37.1955C36.9687 39.5673 32.9219 39.5673 30.5156 37.1955L11.2656 18.3283L9.1875 20.3767L23.5156 34.5002L9.1875 48.6236L11.2656 50.672L25.5938 36.5486L28.4375 39.3517C30.1875 41.0767 32.4844 42.047 34.8906 42.047C37.2969 42.047 39.5937 41.0767 41.3437 39.3517L44.1875 36.5486L58.5156 50.672L60.5938 48.6236L46.2656 34.5002L60.7031 20.2689Z" fill="white"/>
<path d="M56.6562 54.3375H13.4531C10.9375 54.3375 8.85938 52.2891 8.85938 49.8094V19.4063C8.85938 16.9266 10.9375 14.8782 13.4531 14.8782H56.6562C59.1719 14.8782 61.25 16.9266 61.25 19.4063V49.8094C61.25 52.2891 59.1719 54.3375 56.6562 54.3375ZM13.3437 17.7891C12.4687 17.7891 11.8125 18.436 11.8125 19.2985V49.7016C11.8125 50.5641 12.4687 51.211 13.3437 51.211H56.5469C57.4219 51.211 58.0781 50.5641 58.0781 49.7016V19.2985C58.0781 18.436 57.4219 17.7891 56.5469 17.7891H13.3437Z" fill="white"/>
</svg>
