<svg width="50" height="48" viewBox="0 0 50 48" fill="none" xmlns="http://www.w3.org/2000/svg">
<path d="M38.2031 5.62505C30.8984 -1.34995 19.1016 -1.34995 11.7969 5.62505C4.53125 12.6 4.53125 23.9625 11.7969 30.975L25 43.35L38.1641 30.9375C45.4687 23.9625 45.4687 12.6 38.2031 5.62505ZM35.9766 28.8L25 39.15L14.0234 28.8375C11.0938 26.025 9.49219 22.275 9.49219 18.3C9.49219 14.325 11.0938 10.575 14.0234 7.76255C16.9531 4.95005 20.8594 3.37505 25 3.37505C29.1406 3.37505 33.0469 4.91255 35.9766 7.72505C38.9062 10.5375 40.5078 14.2875 40.5078 18.2625C40.5469 22.275 38.9062 25.9875 35.9766 28.8Z" fill="white"/>
<path d="M25 10.6125C20.5859 10.6125 17.0312 14.0625 17.0312 18.2625C17.0312 22.4625 20.5859 25.95 25 25.95C29.4141 25.95 32.9688 22.5 32.9688 18.3C32.9688 14.1 29.4141 10.6125 25 10.6125ZM25 22.95C22.3438 22.95 20.1562 20.85 20.1562 18.3C20.1562 15.75 22.3438 13.6125 25 13.6125C27.6563 13.6125 29.8438 15.7125 29.8438 18.2625C29.8438 20.8125 27.6563 22.95 25 22.95Z" fill="white"/>
<path d="M39.4531 44.625H10.5469V47.625H39.4531V44.625Z" fill="white"/>
</svg>
