<svg width="50" height="50" viewBox="0 0 50 50" fill="none" xmlns="http://www.w3.org/2000/svg">
<g clip-path="url(#clip0_229_228)">
<path d="M36.4542 29.9625C35.8271 29.65 32.7729 28.1562 32.2042 27.95C31.6354 27.7396 31.2187 27.6375 30.8021 28.2625C30.3917 28.8771 29.1958 30.2708 28.8354 30.6833C28.4708 31.0896 28.1083 31.1208 27.4896 30.8396C26.8646 30.5271 24.8583 29.8708 22.4833 27.7458C20.6333 26.0896 19.3917 24.0583 19.025 23.4333C18.6625 22.8083 18.9854 22.4646 19.2958 22.1521C19.5792 21.8708 19.9229 21.4333 20.2354 21.0625C20.5396 20.6854 20.6396 20.4354 20.8542 20.0292C21.0625 19.5917 20.9562 19.2479 20.8021 18.9375C20.6458 18.625 19.4021 15.5625 18.8812 14.3417C18.3812 13.125 17.8667 13.2792 17.4812 13.2792C17.1229 13.2479 16.7083 13.2479 16.2917 13.2479C15.875 13.2479 15.2021 13.4021 14.6312 13.9958C14.0625 14.6208 12.4542 16.1208 12.4542 19.1521C12.4542 22.1833 14.6833 25.1208 14.9937 25.5583C15.3042 25.9646 19.3792 32.2146 25.6187 34.9021C27.1062 35.5271 28.2646 35.9021 29.1687 36.2125C30.6562 36.6854 32.0125 36.6187 33.0854 36.4646C34.2812 36.275 36.7667 34.9625 37.2854 33.4937C37.8167 32.025 37.8167 30.8062 37.6604 30.525C37.5062 30.2437 37.0979 30.0875 36.4729 29.8062M25.1271 45.3125H25.0938C21.4062 45.3125 17.7521 44.3125 14.5625 42.4375L13.8125 41.9917L6 44.0229L8.09375 36.4292L7.59583 35.6479C5.53333 32.3646 4.4375 28.5833 4.4375 24.6896C4.4375 13.3458 13.7187 4.09583 25.15 4.09583C30.6792 4.09583 35.8687 6.25208 39.7771 10.1583C43.6833 14.0312 45.8375 19.2208 45.8375 24.7208C45.8292 36.0625 36.5458 45.3146 25.1396 45.3146M42.75 7.18542C38 2.59375 31.75 0 25.0938 0C11.3813 0 0.216667 11.1125 0.210417 24.7771C0.210417 29.1437 1.35417 33.4021 3.53333 37.1625L0 50L13.1979 46.5583C16.8354 48.5229 20.9271 49.5667 25.0938 49.5729H25.1062C38.825 49.5729 49.9937 38.4562 50 24.7896C50 18.1729 47.4167 11.9458 42.7187 7.26667" fill="white"/>
</g>
<defs>
<clipPath id="clip0_229_228">
<rect width="50" height="50" fill="white"/>
</clipPath>
</defs>
</svg>
